<svg xmlns="http://www.w3.org/2000/svg" width="48" height="48" viewBox="0 0 48 48"><path d="M26.775,14.594a.339.339,0,0,1,.3-.151H27.6q.15.15.15.2,0,.174-.75,3.075-.176.7-.362,1.474c-.125.518-.222.9-.288,1.151l-.1.4c.1.016.216.033.35.049a5.851,5.851,0,0,1,2.812,1.15,4.136,4.136,0,0,1,1.487,2.3,3.908,3.908,0,0,1,.125,1.049,5.855,5.855,0,0,1-1.862,4.139,8.6,8.6,0,0,1-4.513,2.462,5.627,5.627,0,0,1-1.125.149h-.1l-.6,2.375q-.6,2.4-.65,2.451a.946.946,0,0,1-.4.049c-.333,0-.5-.059-.5-.174q0-.126.551-2.375l.574-2.3c0-.016-.066-.025-.2-.025a1.409,1.409,0,0,1-.225-.037c-.117-.026-.217-.046-.3-.063a5.3,5.3,0,0,1-2.563-1.162,4.136,4.136,0,0,1-1.362-2.187,3.858,3.858,0,0,1-.125-1.075,5.349,5.349,0,0,1,.625-2.451,7.391,7.391,0,0,1,1.937-2.324A9.011,9.011,0,0,1,23,21.193a7.347,7.347,0,0,1,2.1-.424.135.135,0,0,0,.15-.1L26,17.619Q26.777,14.643,26.775,14.594ZM19.6,28.043a2.957,2.957,0,0,0,.775,2.15,3.234,3.234,0,0,0,2.1.926h.174l1.176-4.7,1.15-4.725a1.572,1.572,0,0,0-.25.051A5.478,5.478,0,0,0,20.8,24.193a9.249,9.249,0,0,0-.825,1.676A7.016,7.016,0,0,0,19.6,28.043Zm9.45-3.3a2.872,2.872,0,0,0-.713-2.025,3.2,3.2,0,0,0-1.887-.975c-.234-.033-.359-.051-.375-.051H26l-1.15,4.676-1.2,4.7c0,.034.009.051.026.051l.025-.025h.05a5.091,5.091,0,0,0,1.725-.475,6.02,6.02,0,0,0,3.45-4.775A6.344,6.344,0,0,0,29.051,24.744Z" style="fill:#404040"/></svg>